<svg height='300px' width='300px'  fill="#3BB300" xmlns="http://www.w3.org/2000/svg" xmlns:ooo="http://xml.openoffice.org/svg/export" xmlns:xlink="http://www.w3.org/1999/xlink" xmlns:presentation="http://sun.com/xmlns/staroffice/presentation" xmlns:smil="http://www.w3.org/2001/SMIL20/" xmlns:anim="urn:oasis:names:tc:opendocument:xmlns:animation:1.0" version="1.2" viewBox="0 0 2540 2540" preserveAspectRatio="xMidYMid" fill-rule="evenodd" stroke-width="28.222" stroke-linejoin="round" xml:space="preserve" x="0px" y="0px"><defs class="ClipPathGroup"><clipPath id="a" clipPathUnits="userSpaceOnUse"><rect x="0" y="0" width="2540" height="2540"></rect></clipPath></defs><g class="SlideGroup"><g><g><g class="Slide" clip-path="url(#a)"><g class="Page"><g class="com.sun.star.drawing.ClosedBezierShape"><g><rect class="BoundingBox" stroke="none" fill="none" x="216" y="243" width="2109" height="1855"></rect><path fill="#3BB300" stroke="none" d="M 1010,1059 C 931,1088 858,1131 796,1184 794,1186 792,1187 790,1188 784,1191 778,1193 771,1193 764,1193 758,1191 752,1188 746,1184 742,1180 738,1174 735,1168 733,1162 733,1155 733,1148 735,1142 738,1136 L 1237,262 C 1237,262 1237,262 1237,262 1241,256 1245,252 1251,248 1257,245 1263,243 1270,243 1277,243 1283,245 1289,248 1295,252 1299,256 1303,262 1303,262 1303,262 1303,262 L 1802,1135 C 1805,1141 1807,1147 1807,1154 1807,1161 1805,1167 1802,1173 1798,1179 1794,1183 1788,1187 1782,1190 1776,1192 1769,1192 1762,1192 1756,1190 1750,1187 1748,1186 1746,1185 1744,1183 1682,1130 1609,1088 1530,1059 1450,1030 1362,1014 1270,1014 1178,1014 1090,1030 1010,1059 Z M 1468,1752 C 1530,1735 1588,1711 1642,1680 1696,1649 1745,1611 1788,1568 1832,1524 1869,1475 1900,1421 1900,1421 1900,1421 1900,1421 1904,1415 1908,1411 1914,1407 1920,1404 1926,1402 1933,1402 1940,1402 1946,1404 1952,1407 1958,1411 1962,1415 1966,1421 1966,1421 1966,1421 1966,1421 L 2319,2040 C 2322,2046 2324,2052 2324,2059 2324,2066 2322,2072 2319,2078 2315,2084 2311,2088 2305,2092 2299,2095 2293,2097 2286,2097 L 254,2097 C 247,2097 241,2095 235,2092 229,2088 225,2084 221,2078 218,2072 216,2066 216,2059 216,2052 218,2046 221,2040 L 575,1421 C 575,1421 575,1421 575,1421 579,1415 583,1411 589,1407 595,1404 601,1402 608,1402 615,1402 621,1404 627,1407 633,1411 637,1415 641,1421 641,1421 641,1421 641,1421 672,1475 709,1525 752,1568 795,1611 844,1649 898,1680 952,1711 1010,1735 1073,1752 1135,1768 1201,1777 1270,1777 1339,1777 1405,1768 1468,1752 Z"></path></g></g><g class="com.sun.star.drawing.ClosedBezierShape"><g><rect class="BoundingBox" stroke="none" fill="none" x="988" y="1120" width="566" height="563"></rect><path fill="#3BB300" stroke="none" d="M 1381,1141 C 1415,1155 1445,1176 1471,1201 1496,1226 1516,1256 1530,1290 1544,1324 1552,1361 1552,1401 1552,1441 1544,1478 1530,1512 1516,1546 1496,1576 1471,1601 1445,1626 1415,1647 1381,1661 1347,1674 1310,1682 1270,1682 1230,1682 1193,1674 1159,1661 1125,1647 1095,1626 1069,1601 1044,1576 1024,1546 1010,1512 996,1478 988,1441 988,1401 988,1361 996,1324 1010,1290 1024,1256 1044,1226 1069,1201 1095,1176 1125,1155 1159,1141 1193,1128 1230,1120 1270,1120 1310,1120 1347,1128 1381,1141 Z"></path></g></g></g></g></g></g></g></svg>